<svg width="60" height="74" viewBox="0 0 60 74" fill="none" xmlns="http://www.w3.org/2000/svg">
<path d="M31.2099 3.32C30.5199 2.66 28.9099 1.02 28.1799 0.599995C28.0299 0.509995 27.8899 0.409995 27.7099 0.369995C27.3299 0.389995 26.9399 2.08 26.8599 2.49C26.5199 4.31999 26.2899 7.14 26.4599 8.97C26.6099 10.57 27.3799 11.69 27.2099 13.4C27.0099 15.36 26.6399 17.19 26.8399 19.24C26.9899 20.78 27.9399 22.26 28.1499 23.72C28.4599 25.87 26.7799 27.62 25.9799 29.58C24.9999 31.98 24.6599 34.63 23.6999 36.97C21.2499 42.94 18.1299 45.08 18.7199 52.39C19.0699 56.67 22.5599 62.79 26.4699 65.37C27.8099 66.25 31.6099 66.91 27.8899 67.85C19.8499 69.89 12.3999 66.64 4.59993 67.94C2.31993 68.32 -1.33007 69.76 0.939929 72.22C2.59993 74.03 4.74993 72.52 6.65993 72.33C10.2999 71.95 13.4199 72.79 16.8999 73.15C26.2299 74.12 31.0899 72.7 38.7499 68.41C40.1799 67.61 43.6899 67.77 45.5899 67.45C54.1899 66 59.7799 57.22 59.2999 49.84C58.9499 44.38 56.3299 41.77 54.3199 37.15C53.1099 34.37 52.7299 31.37 51.4099 28.44C50.4499 26.32 49.3099 25.79 49.8799 23.22C50.5299 20.28 51.4899 18.98 51.1799 15.66C51.0799 14.58 50.5199 13.5 50.5899 12.4C50.6699 11.25 51.4599 9.80999 51.5699 8.47999C51.7799 6.00999 51.1399 3.1 50.4999 0.699995C50.0999 0.209995 48.5499 1.58 48.1799 1.9C47.5299 2.45 46.5899 3.41 45.9599 4.04C45.3299 4.67 43.6699 6.89 43.1699 7.21C42.5599 7.6 41.5899 7.21 40.8499 7.19C38.9199 7.15 36.9999 7.22 35.0799 7.33C33.6999 6.06 32.5399 4.62 31.1899 3.34L31.2099 3.32Z" fill="black"/>
</svg>
