<svg width="71" height="67" viewBox="0 0 71 67" fill="none" xmlns="http://www.w3.org/2000/svg">
<g clip-path="url(#clip0_231_679)">
<path d="M41.7096 33.1386C39.3021 30.6686 35.7908 28.7683 32.4589 29.6885C30.9425 30.1116 29.6383 31.0705 28.4206 32.0631C26.4139 33.701 24.422 35.6765 24.0041 38.2271C23.6865 40.1532 24.3392 42.131 25.3565 43.8016C26.3737 45.4723 30.5823 47.7605 40.4039 47.0338C41.0707 46.8403 44.2235 45.3647 44.6778 44.8422C45.1724 44.2709 46.1155 42.0462 46.1345 41.2889C46.2251 37.6202 44.2754 35.7755 41.7096 33.1386Z" fill="#FFA134"/>
<path d="M25.1473 28.7885C24.8843 28.2929 24.4343 27.9388 24.026 27.5562C21.43 25.1072 18.1288 25.0694 17.1621 26.4032C16.0792 27.9021 15.4272 29.6866 15.1903 31.5171C14.9705 33.2454 15.1485 35.1165 16.1862 36.5232C17.2239 37.9299 20.5026 37.3281 22.172 36.1132C23.8412 34.8982 25.13 33.0754 25.4049 31.0084C25.5063 30.2567 25.4932 29.462 25.1422 28.794L25.1473 28.7885Z" fill="#FFA134"/>
<path d="M36.3225 23.9211C36.4678 22.4522 36.373 21.6291 35.8462 20.2482C35.6041 19.6182 34.5689 18.3929 34.0459 17.9619C33.3 17.3432 32.2416 17.3092 31.2647 17.2983C30.1483 17.2882 29.0107 17.2844 27.9406 17.5979C26.8705 17.9113 25.8543 18.6014 25.4215 19.629C25.081 20.4338 24.4577 23.37 24.661 24.2205C25.9632 29.731 35.6905 30.231 36.3225 23.9211Z" fill="#FFA134"/>
<path d="M39.094 22.7139C38.421 23.7734 38.1777 24.4347 38.0487 25.6849C37.9911 26.256 38.3076 27.5828 38.5397 28.1103C38.869 28.8658 39.6595 29.2971 40.397 29.6796C41.2407 30.1149 42.1029 30.5536 43.0354 30.7256C43.968 30.8975 45.0038 30.7628 45.7261 30.1484C46.2929 29.6679 47.8909 27.6774 48.0624 26.9538C49.1847 22.2713 41.9911 18.1654 39.094 22.7139Z" fill="#FFA134"/>
<path d="M55.2892 32.7645C54.8455 31.2761 53.4477 29.9644 51.7538 29.8835C50.3569 29.8187 49.0393 30.5719 48.1399 31.5583C47.3981 32.3734 46.8693 33.392 46.891 34.4494C46.9167 35.7095 47.657 36.871 48.5016 37.8588C49.9041 39.5036 52.5462 39.4949 53.3852 39.0186C54.0535 38.6368 54.4417 37.9578 54.7382 37.2925C55.3752 35.8584 55.728 34.2532 55.2843 32.7648L55.2892 32.7645Z" fill="#FFA134"/>
</g>
<defs>
<clipPath id="clip0_231_679">
<rect width="50.5853" height="48.8991" fill="white" transform="translate(41.6572 66.5581) rotate(-144.56)"/>
</clipPath>
</defs>
</svg>
