<svg width="70" height="70" viewBox="0 0 70 70" fill="none" xmlns="http://www.w3.org/2000/svg">
<g clip-path="url(#clip0_546_1525)">
<path d="M41.2655 36.0578C38.858 33.5878 35.3467 31.6874 32.0148 32.6077C30.4984 33.0308 29.1942 33.9896 27.9765 34.9823C25.9698 36.6202 23.9779 38.5956 23.56 41.1463C23.2424 43.0724 23.8951 45.0502 24.9124 46.7208C25.9296 48.3914 30.1382 50.6797 39.9598 49.953C40.6266 49.7595 43.7794 48.2839 44.2337 47.7614C44.7283 47.1901 45.6714 44.9654 45.6904 44.2081C45.781 40.5394 43.8313 38.6947 41.2655 36.0578Z" fill="#FFFCF4"/>
<path d="M24.7027 31.7076C24.4397 31.212 23.9897 30.858 23.5814 30.4754C20.9854 28.0263 17.6842 27.9886 16.7175 29.3223C15.6346 30.8213 14.9826 32.6058 14.7457 34.4363C14.5259 36.1645 14.7039 38.0356 15.7416 39.4423C16.7793 40.849 20.058 40.2473 21.7274 39.0323C23.3967 37.8174 24.6855 35.9945 24.9603 33.9276C25.0617 33.1759 25.0486 32.3812 24.6976 31.7132L24.7027 31.7076Z" fill="#FFFCF4"/>
<path d="M35.8782 26.8403C36.0235 25.3714 35.9287 24.5483 35.4018 23.1674C35.1598 22.5374 34.1246 21.3121 33.6015 20.8811C32.8557 20.2624 31.7973 20.2284 30.8204 20.2175C29.7039 20.2074 28.5664 20.2036 27.4962 20.517C26.4261 20.8305 25.41 21.5206 24.9772 22.5482C24.6367 23.353 24.0133 26.2892 24.2167 27.1397C25.5188 32.6502 35.2461 33.1502 35.8782 26.8403Z" fill="#FFFCF4"/>
<path d="M38.6499 25.633C37.9769 26.6925 37.7336 27.3539 37.6046 28.6041C37.547 29.1752 37.8635 30.502 38.0956 31.0295C38.4249 31.785 39.2154 32.2163 39.9529 32.5987C40.7966 33.0341 41.6588 33.4728 42.5913 33.6447C43.5239 33.8167 44.5597 33.682 45.282 33.0676C45.8488 32.587 47.4468 30.5966 47.6183 29.873C48.7406 25.1904 41.547 21.0845 38.6499 25.633Z" fill="#FFFCF4"/>
<path d="M54.8448 35.6837C54.4012 34.1952 53.0034 32.8836 51.3095 32.8027C49.9126 32.7379 48.5949 33.4911 47.6955 34.4775C46.9538 35.2926 46.425 36.3111 46.4467 37.3685C46.4724 38.6287 47.2127 39.7901 48.0572 40.7779C49.4597 42.4227 52.1019 42.4141 52.9409 41.9378C53.6092 41.5559 53.9973 40.877 54.2938 40.2117C54.9309 38.7776 55.2837 37.1724 54.84 35.6839L54.8448 35.6837Z" fill="#FFFCF4"/>
</g>
<defs>
<clipPath id="clip0_546_1525">
<rect width="50.5853" height="48.8991" fill="white" transform="translate(41.2129 69.4773) rotate(-144.56)"/>
</clipPath>
</defs>
</svg>
