<svg width="105" height="108" viewBox="0 0 105 108" fill="none" xmlns="http://www.w3.org/2000/svg">
<path d="M59.3142 64.1889C59.3638 57.8357 57.2304 50.7974 51.6763 47.6839C49.143 46.2725 46.1931 45.8373 43.3126 45.5586C38.5632 45.102 33.3956 45.1063 29.5429 47.9034C26.6309 50.0131 24.9222 53.448 24.0886 56.9533C23.255 60.4584 25.7985 68.908 39.5968 80.6855C40.7205 81.2966 46.7599 83.451 48.0317 83.3557C49.4195 83.2489 53.5372 81.559 54.5435 80.5924C59.4168 75.9075 59.2553 70.9659 59.3142 64.1889Z" fill="#FFCF97"/>
<path d="M43.2713 37.0293C43.5694 36.0397 43.4392 34.993 43.4005 33.9631C43.1763 27.3928 38.904 23.065 35.91 23.5581C32.5498 24.1168 29.3837 25.6078 26.7013 27.6968C24.1737 29.6742 21.9817 32.3542 21.517 35.5404C21.0523 38.7266 26.124 42.1882 29.8838 42.7613C33.6434 43.3343 37.6929 42.6185 40.7315 40.269C41.8384 39.4165 42.8511 38.3592 43.2574 37.0299L43.2713 37.0293Z" fill="#FFCF97"/>
<path d="M64.2081 45.1412C66.3019 43.4069 67.2446 42.2064 68.3446 39.716C68.8442 38.5777 69.0772 35.6322 68.951 34.3902C68.7765 32.6137 67.4352 31.1974 66.1704 29.9171C64.7222 28.457 63.2381 26.9777 61.431 26.0011C59.624 25.0246 57.3995 24.611 55.5011 25.3952C54.0124 26.0074 49.3912 29.0431 48.5551 30.4199C43.118 39.3207 55.2031 52.5818 64.2081 45.1412Z" fill="#FFCF97"/>
<path d="M69.4008 47.1531C67.1467 47.6678 65.9711 48.2181 64.182 49.6875C63.3666 50.3604 62.0614 52.5074 61.6814 53.4987C61.1333 54.9143 61.6092 56.5034 62.079 57.9599C62.6192 59.6232 63.1792 61.3149 64.177 62.7485C65.175 64.1822 66.7054 65.3484 68.4471 65.4802C69.8119 65.5857 74.4833 65.0512 75.6455 64.3262C83.1832 59.6513 79.088 44.9537 69.4008 47.1531Z" fill="#FFCF97"/>
<path d="M77.5743 81.298C78.9226 78.7746 78.7928 75.2462 76.6804 72.9449C74.9358 71.0497 72.2349 70.328 69.7792 70.4535C67.7518 70.5593 65.7395 71.2072 64.3976 72.6195C62.7981 74.3024 62.2619 76.7821 62.0872 79.1696C61.7914 83.1404 65.2612 86.5532 66.9768 87.0171C68.3465 87.3834 69.7345 86.9977 70.9849 86.511C73.6773 85.4595 76.2195 83.8154 77.5677 81.292L77.5743 81.298Z" fill="#FFCF97"/>
</svg>
