<svg width="145" height="99" viewBox="0 0 145 99" fill="none" xmlns="http://www.w3.org/2000/svg">
<path d="M61.9281 26.1892L61.9359 26.1931C62.2406 26.3684 62.7818 26.8393 63.3725 27.3943C63.7832 27.7802 64.1792 28.1673 64.5033 28.4841L64.4789 28.5095L64.851 28.863C65.5122 29.49 66.1287 30.1575 66.7631 30.8396C67.3934 31.5173 68.0404 32.2084 68.7465 32.8581L68.9027 33.0017L69.1137 32.989C71.0274 32.8793 72.9334 32.8107 74.8451 32.8503V32.8493C74.9932 32.8536 75.1631 32.8772 75.3637 32.9099C75.5547 32.941 75.7844 32.9823 76.0023 33.0095C76.3715 33.0555 76.8422 33.082 77.266 32.8884L77.4447 32.7917V32.7907C77.6373 32.6674 77.8799 32.4139 78.1059 32.1618C78.349 31.8907 78.6283 31.5566 78.9066 31.2195C79.4784 30.5269 80.0261 29.8461 80.3188 29.5534C80.8798 28.9924 81.6538 28.204 82.2602 27.6589L82.5082 27.4421L82.5121 27.4382C82.7027 27.2734 83.1584 26.8734 83.6107 26.573C83.8032 26.4452 83.9713 26.3528 84.102 26.3005C84.6714 28.4793 85.1977 30.9746 85.1059 33.1472L85.0766 33.5974V33.5984C85.0273 34.1939 84.8238 34.8299 84.599 35.5105C84.4115 36.0783 84.2023 36.6963 84.1225 37.278L84.0961 37.5251V37.528C84.0555 38.166 84.1986 38.7803 84.3432 39.3259C84.4754 39.8248 84.6049 40.2573 84.6654 40.6833L84.6869 40.8659V40.8669C84.8359 42.4628 84.6807 43.5598 84.4106 44.6189C84.2728 45.159 84.1064 45.6847 83.9272 46.281C83.7938 46.7246 83.6557 47.1992 83.5248 47.7263L83.3969 48.2722C83.0905 49.6538 83.2393 50.5416 83.6234 51.3689C83.8043 51.7584 84.0363 52.1324 84.2621 52.5085C84.4349 52.7963 84.6133 53.0994 84.7875 53.445L84.9594 53.8064C85.6018 55.2325 86.0183 56.6805 86.4301 58.1462C86.788 59.42 87.1434 60.7129 87.643 61.9724L87.8666 62.5095C88.3779 63.6848 88.9272 64.7297 89.4633 65.7136C90.0022 66.7028 90.5203 67.6175 90.9897 68.5622C91.8616 70.3175 92.5461 72.143 92.768 74.5437L92.8061 75.032V75.0329C93.2641 82.0798 87.9949 90.4486 79.8998 92.0456L79.5121 92.1169C78.5911 92.272 77.2958 92.3086 75.9604 92.4118C75.3079 92.4623 74.6552 92.5283 74.0697 92.6355C73.5637 92.7281 73.0782 92.8561 72.6772 93.0476L72.5111 93.1335C68.6978 95.2692 65.6155 96.6711 62.3441 97.4255C59.2802 98.1321 56.0225 98.2775 51.8119 97.8962L50.9565 97.8122C49.207 97.6312 47.6294 97.3407 45.9066 97.1267C44.4294 96.9431 42.9186 96.828 41.309 96.9333L40.6137 96.9929C40.088 97.0454 39.5573 97.1864 39.0629 97.3259C38.5536 97.4696 38.0843 97.6111 37.6234 97.6931C37.1678 97.7741 36.7591 97.7891 36.3861 97.7009C36.0681 97.6256 35.7537 97.4698 35.4457 97.1765L35.3139 97.0417L35.3129 97.0407L35.14 96.8405C34.7797 96.3881 34.7043 96.0409 34.7348 95.7868C34.7711 95.485 34.9738 95.17 35.3773 94.8542C36.0915 94.2954 37.2407 93.8908 38.2602 93.6745L38.6869 93.5935C42.506 92.957 46.2434 93.4324 50.1088 93.8298C53.7114 94.2001 57.4101 94.4988 61.2484 93.6745L62.018 93.4948C62.4956 93.3741 62.8731 93.2532 63.1586 93.1277C63.4269 93.0097 63.6853 92.8579 63.8402 92.6374C63.9261 92.5152 63.9849 92.3637 63.9838 92.1921C63.9827 92.0241 63.9242 91.8821 63.8539 91.7732C63.7245 91.5728 63.5175 91.4257 63.3402 91.3191C62.9731 91.0982 62.4438 90.8866 61.976 90.6941C61.6023 90.5402 61.261 90.3958 60.9926 90.2536L60.7494 90.112C58.8786 88.8772 57.0762 86.7693 55.6957 84.4236C54.4008 82.2231 53.5081 79.8648 53.2641 77.8972L53.224 77.5095C52.9365 73.9467 53.5504 71.6696 54.5297 69.5466C55.0268 68.469 55.6152 67.4354 56.2494 66.2693C56.8013 65.2544 57.379 64.1535 57.932 62.8777L58.1674 62.32C58.6623 61.1136 58.9958 59.8325 59.3217 58.5837C59.6094 57.481 59.8921 56.4014 60.2768 55.3689L60.4477 54.9294C60.6354 54.4694 60.8787 54.0147 61.142 53.5446C61.4007 53.083 61.686 52.5954 61.933 52.1071C62.3987 51.1867 62.7777 50.1722 62.6772 49.0368L62.6498 48.8083C62.5352 48.012 62.2212 47.2194 61.9457 46.4929C61.6964 45.8355 61.4734 45.2205 61.3764 44.612L61.3432 44.3513C61.1739 42.6156 61.4256 41.0683 61.6293 39.3562L61.7123 38.6111V38.6091C61.8063 37.6633 61.6384 36.8858 61.4428 36.1716C61.2686 35.5354 61.0853 34.9832 60.9955 34.3571L60.9633 34.0837C60.799 32.3148 61.0218 29.5464 61.3559 27.7458C61.3934 27.5535 61.506 27.0493 61.6527 26.5984C61.7128 26.4139 61.7766 26.2546 61.8344 26.1325L61.9281 26.1892Z" fill="black" stroke="#FFA45B"/>
<path d="M21.5652 48.55C17.9352 48.16 15.2452 44.83 12.1652 43.86C12.2652 43.94 12.6252 44.01 12.7952 44.03C12.9552 44.05 13.3052 44.01 13.3552 44C12.5652 44.5 10.1352 46.16 9.21522 46.83C7.34522 47.99 1.04522 51.8 0.00522055 47.62C-0.234779 42.48 7.85522 34.91 12.9152 35.14C16.1252 35.22 18.3652 37.7 20.3052 39.62C21.9152 41.37 23.6452 42.99 24.3452 45.62C24.8252 47.28 23.2352 48.92 21.5652 48.54V48.55Z" fill="#604D32"/>
<path d="M7.46523 63.69C9.26523 61.16 12.0752 60.17 14.8952 59.58C17.3552 58.98 20.6552 58.85 22.4552 61.21C23.9252 63.07 23.7852 65.68 23.0352 67.64C22.0752 70.01 19.4452 75.22 16.6252 72.82C15.9552 72.2 15.7552 71.29 15.9952 70.47C16.4352 68.56 16.9652 66.95 16.8552 65.31C16.7952 64.82 16.6552 65.09 16.8252 65.39C16.9252 65.63 17.0952 65.85 17.3052 66.01C17.7952 66.44 18.1852 66.44 18.1352 66.46C18.0552 66.49 17.2952 66.61 16.6052 66.81C14.1252 67.48 12.0452 67.97 9.25523 67.65C7.37523 67.5 6.35523 65.17 7.47523 63.68L7.46523 63.69Z" fill="#604D32"/>
<path d="M12.5752 71.16C14.6852 70.75 16.6352 70.91 18.6152 71.49C21.9052 72.53 22.8152 76.91 19.4752 78.56C16.7152 79.64 13.7352 78.5 11.3452 77.03C9.03523 75.44 9.86523 71.67 12.5852 71.16H12.5752Z" fill="#604D32"/>
<path d="M26.0552 37.76C32.1752 34.18 40.7752 33.08 47.2152 36.43C48.5052 37.17 48.9552 38.82 48.2152 40.12C47.9152 40.65 47.4552 41.03 46.9352 41.26C43.6552 42.69 40.4552 43.03 37.0252 43.17C33.6152 43.27 30.3352 43.25 26.9052 42.5C24.6752 42.05 24.1552 38.93 26.0652 37.76H26.0552Z" fill="#604D32"/>
<path d="M33.1855 39.6696C33.9055 39.0999 34.9552 39.2202 35.5351 39.9401C35.925 40.44 35.9953 41.0797 35.7656 41.6296L35.7949 41.6198C35.2333 43.083 34.6903 44.5283 34.2002 45.9782C37.6913 45.4189 41.2242 45.1486 44.7949 45.3102C50.4448 45.5002 52.5849 48.2899 52.5849 53.8298C52.6949 57.7198 52.6453 61.2 52.4853 65.03C52.4153 67.56 51.9552 70.9604 49.5752 72.7204C47.4952 74.4502 44.6652 74.63 42.2754 74.78C40.4254 74.89 38.645 75.0002 36.705 75.0602C30.8752 75.4402 25.1249 73.72 24.9648 66.8102C24.9648 60.8302 24.4455 55.0998 26.3955 49.3698C27.7755 45.5399 30.1056 42.1096 33.1855 39.6696ZM44.2549 52.1003C40.3778 51.7865 36.3901 51.984 32.4883 52.4645C32.4253 52.8243 32.3664 53.1862 32.3154 53.5505C31.8455 57.5104 32.0148 62.2901 32.1748 66.2399C32.1904 66.5438 32.2788 67.0664 32.3408 67.3249C32.7802 67.5899 33.2638 67.6144 34.125 67.6901C37.285 67.7701 40.9952 67.5099 44.1552 67.1599C44.4612 67.1259 44.7245 67.0368 44.8701 66.9977C45.4918 63.0732 45.3862 58.0947 45.4853 54.03C45.4853 53.392 45.4461 52.7434 45.3984 52.2692C45.0705 52.2029 44.6525 52.1379 44.2549 52.1003Z" fill="#604D32"/>
<path d="M33.1855 39.6696C33.9055 39.0999 34.9552 39.2202 35.5351 39.9401C35.925 40.44 35.9953 41.0797 35.7656 41.6296L35.7949 41.6198C35.2333 43.083 34.6903 44.5283 34.2002 45.9782C37.6913 45.4189 41.2242 45.1486 44.7949 45.3102C50.4448 45.5002 52.5849 48.2899 52.5849 53.8298C52.6949 57.7198 52.6453 61.2 52.4853 65.03C52.4153 67.56 51.9552 70.9604 49.5752 72.7204C47.4952 74.4502 44.6652 74.63 42.2754 74.78C40.4254 74.89 38.645 75.0002 36.705 75.0602C30.8752 75.4402 25.1249 73.72 24.9648 66.8102C24.9648 60.8302 24.4455 55.0998 26.3955 49.3698C27.7755 45.5399 30.1056 42.1096 33.1855 39.6696ZM44.2549 52.1003C40.3778 51.7865 36.3901 51.984 32.4883 52.4645C32.4253 52.8243 32.3664 53.1862 32.3154 53.5505C31.8455 57.5104 32.0148 62.2901 32.1748 66.2399C32.1904 66.5438 32.2788 67.0664 32.3408 67.3249C32.7802 67.5899 33.2638 67.6144 34.125 67.6901C37.285 67.7701 40.9952 67.5099 44.1552 67.1599C44.4612 67.1259 44.7245 67.0368 44.8701 66.9977C45.4918 63.0732 45.3862 58.0947 45.4853 54.03C45.4853 53.392 45.4461 52.7434 45.3984 52.2692C45.0705 52.2029 44.6525 52.1379 44.2549 52.1003Z" stroke="#FFA45B"/>
<path d="M33.8052 80.95C32.6852 82.19 31.1252 82.49 29.5552 82.7C26.7852 82.92 25.3652 79.35 27.4552 77.59C28.7152 76.63 30.0352 75.75 31.7052 75.84C34.1252 76.04 35.3652 79.12 33.8052 80.95Z" fill="#604D32"/>
<path d="M43.4052 76.24C44.9252 77.28 46.3252 78.58 46.8252 80.39C47.3452 82.58 44.9352 84.53 42.9152 83.61C41.2352 82.77 40.2252 81.15 39.4952 79.46C38.5952 77.13 41.3352 74.94 43.4052 76.24Z" fill="#604D32"/>
<path d="M104.765 43.76C102.285 46.35 99.1052 47.85 95.7852 49.06C93.4952 49.87 91.4052 47.18 92.7152 45.17C95.0152 41.88 98.7652 39.31 102.855 39.19C105.165 39.19 106.375 42.13 104.765 43.76Z" fill="#604D32"/>
<path d="M95.0152 59.67C98.0252 58.39 102.085 56.37 105.055 54.82C106.145 54.14 107.005 53.31 107.925 52.29C108.925 51.18 110.555 48.8 112.275 50.52C112.775 51.05 112.865 51.77 112.665 52.41C112.105 55.2 109.865 58.87 106.925 60.27L105.795 60.86C102.635 62.42 99.5452 63.81 95.8552 64.1C93.2052 64.22 92.5352 60.52 95.0152 59.67Z" fill="#604D32"/>
<path d="M109.385 58.23C112.395 61.41 113.915 65.57 114.275 69.87C114.755 73.73 114.645 79.39 109.905 80.72C107.795 81.34 104.045 81.22 104.615 78.37C104.795 77.74 105.265 77.31 105.825 77.08C106.845 76.54 107.595 76.17 107.885 75.34C107.935 75.23 107.845 75.28 107.795 75.28C107.625 75.12 107.845 74.06 107.755 73.32C107.285 68.72 105.915 64.38 106.005 59.59C105.965 57.88 108.235 56.99 109.375 58.23H109.385Z" fill="#604D32"/>
<path d="M104.035 68.48C102.985 69.15 101.515 70.08 100.435 70.67C98.9652 71.53 97.0852 71.03 96.2252 69.57C95.0752 67.71 96.3852 65.15 98.5452 64.96C99.7352 64.86 101.365 64.65 102.565 64.47C104.875 64.14 105.985 67.26 104.035 68.48Z" fill="#604D32"/>
<path d="M125.365 67.47C125.905 69.76 127.275 71.18 128.645 70.95C129.835 70.75 130.845 69.31 131.195 67.31" stroke="#FFA45B" stroke-width="6" stroke-linecap="round" stroke-linejoin="round"/>
<path d="M112.165 45.08C117.195 43.32 122.355 42.7 127.595 42.41C132.845 42.2 138.025 42.37 143.165 43.89C145.175 44.47 145.255 47.44 143.295 48.12C138.275 50.02 133.125 50.6 127.865 50.79C122.625 50.91 117.445 50.68 112.295 49.31C111.115 48.98 110.425 47.76 110.755 46.58C110.955 45.85 111.495 45.31 112.165 45.08Z" fill="#604D32"/>
<path d="M124.335 40.81C125.595 43.95 125.455 46.74 125.355 50.01C125.285 51.1 125.175 52.26 124.835 53.51C124.445 54.95 122.965 55.8 121.525 55.41C120.955 55.25 120.465 54.92 120.125 54.49C118.515 52.43 117.695 49.99 117.435 47.39C117.185 44.69 117.705 41.81 119.645 39.72C121.055 38.18 123.725 38.84 124.335 40.81Z" fill="#604D32"/>
<path d="M136.045 37.64C139.495 40.67 140.095 45.74 138.595 49.86C137.805 52.21 134.855 56.03 132.295 53.25C132.075 53 131.925 52.7 131.805 52.41C130.405 49 130.205 45.92 130.735 42.41C130.935 41.27 131.265 39.96 131.895 38.6C132.585 36.99 134.725 36.5 136.055 37.63L136.045 37.64Z" fill="#604D32"/>
<path d="M121.025 62.46C120.585 67.04 120.545 71.66 121.485 76.22C121.715 77.55 120.825 78.81 119.505 79.04C118.455 79.22 117.435 78.7 116.945 77.81C114.265 72.78 113.885 66.25 116.405 61.08C117.625 58.65 121.345 59.79 121.035 62.46H121.025Z" fill="#604D32"/>
<path d="M118.225 58.5098C124.215 53.79 133.345 53.0399 139.825 57.0996L140.995 58.8096C142.955 61.6595 143.695 64.8499 144.065 68.0498C144.375 71.0297 144.705 73.1899 144.055 76.3896C143.105 80.4496 138.465 82.45 134.785 82.46C129.405 82.6099 124.515 82.1701 119.445 80.6602C114.875 79.1901 116.795 72.5005 121.445 73.6904C125.305 75.3704 130.045 75.6896 134.085 75.1396C135.004 75.0201 135.749 74.7212 136.093 74.4863C136.028 70.2753 134.959 65.9467 135.493 61.5352C131.863 60.9932 128.287 60.7338 124.625 61.3896C123.165 61.6296 121.695 61.9897 120.185 62.3896C117.885 63.0096 116.385 59.96 118.225 58.5V58.5098ZM136.296 74.2803C136.314 74.243 136.378 73.9629 136.151 74.4443C136.233 74.3816 136.283 74.3259 136.296 74.2803Z" fill="#604D32"/>
<path d="M118.225 58.5098C124.215 53.79 133.345 53.0399 139.825 57.0996L140.995 58.8096C142.955 61.6595 143.695 64.8499 144.065 68.0498C144.375 71.0297 144.705 73.1899 144.055 76.3896C143.105 80.4496 138.465 82.45 134.785 82.46C129.405 82.6099 124.515 82.1701 119.445 80.6602C114.875 79.1901 116.795 72.5005 121.445 73.6904C125.305 75.3704 130.045 75.6896 134.085 75.1396C135.004 75.0201 135.749 74.7212 136.093 74.4863C136.028 70.2753 134.959 65.9467 135.493 61.5352C131.863 60.9932 128.287 60.7338 124.625 61.3896C123.165 61.6296 121.695 61.9897 120.185 62.3896C117.885 63.0096 116.385 59.96 118.225 58.5V58.5098ZM136.296 74.2803C136.314 74.243 136.378 73.9629 136.151 74.4443C136.233 74.3816 136.283 74.3259 136.296 74.2803Z" stroke="#FFA45B"/>
<path d="M104.815 74.88C103.605 75.72 101.805 76.86 100.535 77.65C99.1252 78.53 97.2552 78.11 96.3752 76.69C95.3252 75.07 96.1552 72.8 97.9852 72.22C99.3552 71.75 101.215 71.05 102.545 70.51C105.315 69.47 107.235 73.24 104.825 74.88H104.815Z" fill="#604D32"/>
<path d="M99.2652 51.57C100.335 52.43 101.805 52.46 102.825 51.69C103.715 51.02 104.115 49.83 103.835 48.69" stroke="#FFA45B" stroke-width="6" stroke-linecap="round" stroke-linejoin="round"/>
<path d="M9.06522 52.02C9.60522 54.31 10.9752 55.73 12.3452 55.5C13.5352 55.3 14.5452 53.86 14.8952 51.86" stroke="#FFA45B" stroke-width="6" stroke-linecap="round" stroke-linejoin="round"/>
<path d="M73.2352 15L35.7852 29" stroke="#FFA45B" stroke-width="6" stroke-miterlimit="10" stroke-linecap="round"/>
<path d="M74.6652 15.2L112.115 29.2" stroke="#FFA45B" stroke-width="6" stroke-miterlimit="10" stroke-linecap="round"/>
<path d="M97.4952 12V22.2" stroke="#FFA45B" stroke-width="6" stroke-miterlimit="10"/>
<path d="M35.8652 58.35C36.4052 60.64 37.7752 62.06 39.1452 61.83C40.3352 61.63 41.3452 60.19 41.6952 58.19" stroke="#FFA45B" stroke-width="6" stroke-linecap="round" stroke-linejoin="round"/>
</svg>
