<svg width="191" height="146" viewBox="0 0 191 146" fill="none" xmlns="http://www.w3.org/2000/svg">
<path d="M85.7675 10.2346C94.0967 8.71167 98.6939 8.81906 106.784 10.2346C112.788 6.85567 116.389 5.21661 123.468 3.01163C130.547 0.80665 135.976 1.26995 135.976 1.26995L136.007 1.27246C139.679 1.56536 141.521 1.71231 145.555 4.35747C149.601 7.01016 150.667 11.6432 151.255 13.3825C151.255 13.3825 153.332 21.6364 153.613 23.9979C153.894 26.3594 154.555 29.9896 154.555 32.4322C154.555 34.8748 153.945 38.2821 154.555 40.5526C155.164 42.8231 158.878 48.201 162.318 53.8703C165.723 59.4831 169.324 72.132 168.841 72.3185C169.477 72.3622 177.002 73.0307 177.002 73.0307C177.002 73.0307 184.56 73.8183 186.676 74.3206C188.793 74.8229 190.857 76.9806 190.331 80.2327C189.882 82.4422 189.077 83.3411 187.536 83.8386C185.996 84.3362 169.931 81.8851 170.163 82.9712C170.395 84.0572 170.508 87.9038 169.585 91.197C177.8 94.7051 188.663 100.307 189.794 101.516C190.924 102.725 190.769 104.437 189.794 106.138C188.818 107.84 186.475 108.5 184.983 108.074C183.49 107.648 175.335 103.416 169.585 100.764C166.515 111.598 163.296 116.723 155.925 124.827C149.076 131.329 142.764 135.889 135.976 138.884C129.188 141.879 112.964 145.161 98.5264 145.522C83.4699 145.457 75.3062 143.887 61.0978 139.161C47.9022 133.655 41.5626 129.495 33.2936 118.991C28.4859 113.474 26.497 109.169 23.5702 100.428C18.0824 103.556 15.0972 105.031 9.90925 107.258C6.72525 107.774 5.32428 107.268 3.56089 105.008C2.61897 103.073 2.63163 100.962 3.65697 100.032C4.68231 99.1025 21.5612 91.0258 21.5612 91.0258C21.5612 91.0258 21.215 85.1228 21.5612 81.7042C15.3505 82.7222 7.8986 83.4531 5.64271 83.1449C3.38681 82.8367 1.43952 81.7375 0.877577 79.451C0.286317 77.0452 1.46938 74.2873 3.75881 73.7993C6.04825 73.3114 15.1956 72.381 22.5238 71.4722C24.1357 65.9649 25.8236 61.4028 28.131 56.1288C30.4384 50.8548 37.1494 39.9324 37.3605 40.2245C37.5716 40.5165 36.6188 29.7589 38.4318 21.8479C39.3618 17.7896 39.9146 15.042 42.1401 9.65174C43.8184 6.5617 45.7705 4.47409 48.6181 3.01163C51.4656 1.54917 56.4719 0.500827 63.1536 1.1639C67.1044 1.67554 69.8312 2.53519 75.2673 4.70738L85.7675 10.2346Z" fill="white"/>
</svg>
