<svg width="70" height="70" viewBox="0 0 70 70" fill="none" xmlns="http://www.w3.org/2000/svg">
<g clip-path="url(#clip0_348_1361)">
<path d="M41.3837 36.013C38.9762 33.543 35.4649 31.6426 32.133 32.5629C30.6166 32.986 29.3124 33.9448 28.0947 34.9375C26.088 36.5754 24.0961 38.5508 23.6781 41.1015C23.3605 43.0276 24.0133 45.0054 25.0306 46.676C26.0478 48.3466 30.2563 50.6349 40.0779 49.9082C40.7448 49.7147 43.8976 48.2391 44.3518 47.7166C44.8465 47.1453 45.7895 44.9206 45.8086 44.1633C45.8992 40.4946 43.9494 38.6499 41.3837 36.013Z" fill="#CAB271"/>
<path d="M24.8209 31.6629C24.5579 31.1672 24.1079 30.8132 23.6996 30.4306C21.1036 27.9815 17.8024 27.9438 16.8357 29.2775C15.7528 30.7765 15.1008 32.561 14.8639 34.3915C14.644 36.1197 14.8221 37.9908 15.8597 39.3975C16.8974 40.8042 20.1762 40.2025 21.8455 38.9875C23.5148 37.7726 24.8036 35.9497 25.0785 33.8828C25.1799 33.1311 25.1667 32.3364 24.8158 31.6684L24.8209 31.6629Z" fill="#CAB271"/>
<path d="M35.9964 26.7955C36.1417 25.3266 36.0468 24.5035 35.52 23.1226C35.2779 22.4926 34.2428 21.2673 33.7197 20.8363C32.9739 20.2176 31.9154 20.1836 30.9385 20.1727C29.8221 20.1626 28.6845 20.1588 27.6144 20.4722C26.5443 20.7857 25.5281 21.4758 25.0953 22.5034C24.7548 23.3082 24.1315 26.2444 24.3349 27.0949C25.637 32.6054 35.3643 33.1054 35.9964 26.7955Z" fill="#CAB271"/>
<path d="M38.7681 25.5882C38.0951 26.6477 37.8517 27.3091 37.7227 28.5593C37.6652 29.1304 37.9817 30.4572 38.2137 30.9847C38.543 31.7402 39.3335 32.1715 40.0711 32.5539C40.9148 32.9893 41.777 33.428 42.7095 33.5999C43.6421 33.7719 44.6779 33.6372 45.4002 33.0228C45.967 32.5422 47.565 30.5518 47.7364 29.8282C48.8588 25.1456 41.6651 21.0397 38.7681 25.5882Z" fill="#CAB271"/>
<path d="M54.963 35.6389C54.5193 34.1504 53.1215 32.8388 51.4276 32.7579C50.0307 32.6931 48.7131 33.4463 47.8137 34.4327C47.072 35.2478 46.5431 36.2663 46.5649 37.3237C46.5906 38.5839 47.3309 39.7453 48.1754 40.7331C49.5779 42.378 52.22 42.3693 53.059 41.893C53.7274 41.5111 54.1155 40.8322 54.412 40.1669C55.0491 38.7328 55.4018 37.1276 54.9582 35.6391L54.963 35.6389Z" fill="#CAB271"/>
</g>
<defs>
<clipPath id="clip0_348_1361">
<rect width="50.5853" height="48.8991" fill="white" transform="translate(41.3311 69.4325) rotate(-144.56)"/>
</clipPath>
</defs>
</svg>
