<svg width="18" height="27" viewBox="0 0 18 27" fill="none" xmlns="http://www.w3.org/2000/svg">
<path d="M3.27121 9.36656C3.27121 8.63129 3.41604 7.90322 3.69741 7.22391C3.97879 6.54461 4.39121 5.92738 4.91113 5.40746C5.43104 4.88755 6.04827 4.47513 6.72758 4.19375C7.40688 3.91237 8.13495 3.76755 8.87023 3.76755C9.6055 3.76755 10.3336 3.91237 11.0129 4.19375C11.6922 4.47513 12.3094 4.88755 12.8293 5.40746C13.3492 5.92738 13.7617 6.54461 14.043 7.22391C14.3244 7.90322 14.4692 8.63129 14.4692 9.36656C14.4692 10.1018 14.3244 10.8299 14.043 11.5092C13.7617 12.1885 13.3492 12.8057 12.8293 13.3257C12.3094 13.8456 11.6922 14.258 11.0129 14.5394C10.3336 14.8208 9.6055 14.9656 8.87023 14.9656C8.13495 14.9656 7.40688 14.8208 6.72758 14.5394C6.04827 14.258 5.43104 13.8456 4.91113 13.3257C4.39121 12.8057 3.97879 12.1885 3.69741 11.5092C3.41604 10.8299 3.27121 10.1018 3.27121 9.36656ZM10.4699 18.02C14.5642 17.2702 17.6687 13.6808 17.6687 9.36656C17.6687 4.50742 13.7294 0.568115 8.87023 0.568115C4.01108 0.568115 0.0717773 4.50742 0.0717773 9.36656C0.0717773 13.6808 3.17623 17.2702 7.27051 18.02V19.7647H5.67079C4.78595 19.7647 4.07107 20.4796 4.07107 21.3644C4.07107 22.2493 4.78595 22.9642 5.67079 22.9642H7.27051V24.5639C7.27051 25.4487 7.98538 26.1636 8.87023 26.1636C9.75507 26.1636 10.4699 25.4487 10.4699 24.5639V22.9642H12.0697C12.9545 22.9642 13.6694 22.2493 13.6694 21.3644C13.6694 20.4796 12.9545 19.7647 12.0697 19.7647H10.4699V18.02Z" fill="black"/>
</svg>
