<svg width="28" height="24" viewBox="0 0 28 24" fill="none" xmlns="http://www.w3.org/2000/svg">
<path fill-rule="evenodd" clip-rule="evenodd" d="M11.6471 18.2261C10.3047 19.4388 10.3047 21.405 11.6471 22.6177C12.9895 23.8304 15.166 23.8304 16.5084 22.6177C17.8509 21.405 17.8509 19.4388 16.5084 18.2261C15.166 17.0133 12.9895 17.0133 11.6471 18.2261Z" fill="black"/>
<path fill-rule="evenodd" clip-rule="evenodd" d="M19.3811 18.4258C16.4521 15.7798 11.7034 15.7798 8.77448 18.4258L7.00671 16.8288C10.912 13.3009 17.2436 13.3009 21.1488 16.8288L19.3811 18.4258Z" fill="black"/>
<path fill-rule="evenodd" clip-rule="evenodd" d="M22.4746 15.631C17.8372 11.4416 10.3183 11.4416 5.68085 15.631L3.91309 14.0341C9.52687 8.96271 18.6286 8.96271 24.2424 14.0341L22.4746 15.631Z" fill="black"/>
<path fill-rule="evenodd" clip-rule="evenodd" d="M25.5683 12.8364C19.2222 7.10356 8.93331 7.10356 2.58729 12.8364L0.819519 11.2394C8.14185 4.62464 20.0137 4.62464 27.336 11.2394L25.5683 12.8364Z" fill="black"/>
</svg>
