<svg width="29" height="15" viewBox="0 0 29 15" fill="none" xmlns="http://www.w3.org/2000/svg">
<path fill-rule="evenodd" clip-rule="evenodd" d="M22.562 5.10743C22.562 4.48378 23.1216 3.97821 23.812 3.97821H26.937C27.6273 3.97821 28.187 4.48378 28.187 5.10743V9.6243C28.187 10.2479 27.6273 10.7535 26.937 10.7535H23.812C23.1216 10.7535 22.562 10.2479 22.562 9.6243V5.10743ZM25.062 6.23665V8.49508H25.687V6.23665H25.062Z" fill="black"/>
<path fill-rule="evenodd" clip-rule="evenodd" d="M0.686951 1.71979C0.686951 1.09614 1.24659 0.590576 1.93695 0.590576H23.812C24.5023 0.590576 25.062 1.09614 25.062 1.71979V13.012C25.062 13.6356 24.5023 14.1412 23.812 14.1412H1.93695C1.24659 14.1412 0.686951 13.6356 0.686951 13.012V1.71979ZM4.43695 4.54284V10.1889H6.93695V4.54284H4.43695ZM8.18695 10.1889V4.54284H10.687V10.1889H8.18695ZM11.937 4.54284V10.1889H14.437V4.54284H11.937Z" fill="black"/>
</svg>
